<svg width="425" height="253" viewBox="0 0 425 253" fill="none" xmlns="http://www.w3.org/2000/svg">
<path d="M72.0433 18L72.0433 36H72.0433V18ZM72.0433 126.5L72.0433 108.5L72.0433 108.5L72.0433 126.5ZM18.003 217C8.06184 217 0.00296923 225.059 0.00296923 235C0.00296923 244.941 8.06184 253 18.003 253V217ZM221.12 18L221.12 0H221.12V18ZM158.63 235C158.63 244.941 166.689 253 176.63 253C186.571 253 194.63 244.941 194.63 235H158.63ZM176.63 72.25L173.378 54.5463C164.834 56.1159 158.63 63.5633 158.63 72.25H176.63ZM315.225 126.5L297.237 125.825L297.225 126.162V126.5H315.225ZM290.767 51.4386L303.698 38.9175L290.767 51.4386ZM315.225 180.75H297.225V180.982L297.231 181.214L315.225 180.75ZM407 253C416.941 253 425 244.941 425 235C425 225.059 416.941 217 407 217V253ZM72.0433 18C72.0433 0 72.0342 2.20698e-06 72.0248 9.23573e-06C72.0214 1.28387e-05 72.0119 2.6223e-05 72.0051 3.87048e-05C71.9915 6.56803e-05 71.9771 0.000107901 71.9618 0.000168881C71.9312 0.000290838 71.8972 0.000487849 71.8598 0.000788083C71.7851 0.0013885 71.6969 0.00240206 71.5957 0.00405507C71.3933 0.00736014 71.1384 0.0132274 70.8345 0.0234835C70.2271 0.0439774 69.4206 0.0821073 68.4426 0.152798C66.4928 0.293742 63.8265 0.566631 60.6737 1.09794C54.451 2.14662 45.8871 4.27595 37.0951 8.70809C28.2301 13.1771 18.8407 20.1453 11.6684 30.8992C4.42786 41.7553 0.14676 55.4278 0.00363285 72.0954L36.0023 72.4046C36.0921 61.9472 38.6825 55.276 41.6182 50.8743C44.6222 46.3703 48.7137 43.1667 53.3005 40.8544C57.9604 38.5053 62.8192 37.244 66.6562 36.5974C68.5334 36.281 70.0563 36.1301 71.0381 36.0591C71.5259 36.0238 71.8709 36.009 72.0485 36.003C72.1371 36 72.1831 35.9993 72.1835 35.9993C72.1836 35.9993 72.1723 35.9994 72.1491 35.9996C72.1375 35.9997 72.1229 35.9998 72.1053 35.9999C72.0965 35.9999 72.0869 35.9999 72.0766 36C72.0714 36 72.0631 36 72.0605 36C72.052 36 72.0433 36 72.0433 18ZM0.00363285 72.0954C-0.140009 88.823 3.9964 102.593 11.2357 113.541C18.3981 124.373 27.875 131.359 36.8013 135.82C45.6569 140.246 54.307 142.366 60.5842 143.409C63.7665 143.938 66.4586 144.209 68.4249 144.349C69.4111 144.419 70.2237 144.457 70.8342 144.477C71.1398 144.487 71.3955 144.493 71.598 144.496C71.6992 144.498 71.7873 144.499 71.8616 144.499C71.8988 144.5 71.9325 144.5 71.9628 144.5C71.978 144.5 71.9923 144.5 72.0057 144.5C72.0124 144.5 72.0218 144.5 72.0251 144.5C72.0343 144.5 72.0433 144.5 72.0433 126.5C72.0433 108.5 72.0518 108.5 72.0602 108.5C72.0627 108.5 72.0709 108.5 72.0759 108.5C72.086 108.5 72.0953 108.5 72.1039 108.5C72.121 108.5 72.135 108.5 72.146 108.5C72.1679 108.501 72.1777 108.501 72.1759 108.501C72.1721 108.501 72.1218 108.5 72.0283 108.497C71.8406 108.49 71.4826 108.475 70.9793 108.439C69.9666 108.367 68.4041 108.215 66.4837 107.896C62.5556 107.243 57.6082 105.973 52.8955 103.618C48.2535 101.298 44.1913 98.1112 41.2647 93.6853C38.4152 89.3758 35.913 82.802 36.0023 72.4046L0.00363285 72.0954ZM72.0433 126.5C72.0433 144.5 72.0346 144.5 72.0261 144.5C72.0235 144.5 72.0151 144.5 72.01 144.5C71.9997 144.5 71.9901 144.5 71.9813 144.5C71.9637 144.5 71.9491 144.5 71.9375 144.5C71.9143 144.499 71.9029 144.499 71.9031 144.499C71.9034 144.499 71.9494 144.5 72.038 144.503C72.2157 144.509 72.5606 144.524 73.0485 144.559C74.0303 144.63 75.5531 144.781 77.4303 145.097C81.2673 145.744 86.1262 147.005 90.786 149.354C95.3728 151.667 99.4644 154.87 102.468 159.374C105.404 163.776 107.994 170.447 108.084 180.905L144.083 180.595C143.94 163.928 139.659 150.255 132.418 139.399C125.246 128.645 115.856 121.677 106.991 117.208C98.1995 112.776 89.6356 110.647 83.4128 109.598C80.2601 109.067 77.5938 108.794 75.6439 108.653C74.666 108.582 73.8594 108.544 73.2521 108.523C72.9482 108.513 72.6933 108.507 72.4909 108.504C72.3897 108.502 72.3015 108.501 72.2267 108.501C72.1894 108.5 72.1554 108.5 72.1248 108.5C72.1095 108.5 72.095 108.5 72.0815 108.5C72.0747 108.5 72.0651 108.5 72.0617 108.5C72.0524 108.5 72.0433 108.5 72.0433 126.5ZM108.084 180.905C108.174 191.302 105.671 197.876 102.822 202.185C99.8953 206.611 95.8331 209.798 91.191 212.118C86.4783 214.473 81.5309 215.743 77.6028 216.396C75.6825 216.715 74.1199 216.867 73.1072 216.939C72.6039 216.975 72.246 216.99 72.0583 216.997C71.9647 217 71.9144 217.001 71.9107 217.001C71.9088 217.001 71.9186 217.001 71.9406 217C71.9516 217 71.9656 217 71.9827 217C71.9912 217 72.0005 217 72.0106 217C72.0157 217 72.0239 217 72.0264 217C72.0347 217 72.0433 217 72.0433 235C72.0433 253 72.0522 253 72.0614 253C72.0648 253 72.0742 253 72.0809 253C72.0943 253 72.1086 253 72.1237 253C72.154 253 72.1878 253 72.225 252.999C72.2993 252.999 72.3873 252.998 72.4886 252.996C72.691 252.993 72.9468 252.987 73.2523 252.977C73.8628 252.957 74.6754 252.919 75.6617 252.849C77.6279 252.709 80.32 252.438 83.5023 251.909C89.7796 250.866 98.4296 248.746 107.285 244.32C116.212 239.859 125.688 232.873 132.851 222.041C140.09 211.093 144.227 197.323 144.083 180.595L108.084 180.905ZM72.0433 217H18.003V253H72.0433V217ZM72.0433 36H126.084V0H72.0433V36ZM126.084 36H221.12V0H126.084V36ZM194.63 235V180.75H158.63V235H194.63ZM194.63 180.75V72.25H158.63V180.75H194.63ZM176.63 72.25C179.882 89.9537 179.875 89.955 179.869 89.9562C179.867 89.9565 179.861 89.9576 179.857 89.9583C179.85 89.9596 179.844 89.9606 179.84 89.9615C179.83 89.9632 179.826 89.964 179.826 89.964C179.825 89.964 179.844 89.9608 179.88 89.9546C179.953 89.9422 180.097 89.9182 180.308 89.8854C180.731 89.8198 181.417 89.7196 182.328 89.6075C184.157 89.3825 186.854 89.1146 190.12 88.9772C196.781 88.6969 205.168 88.9895 213.186 90.9194C221.225 92.8542 227.763 96.1513 232.254 101.023C236.443 105.568 240.331 113.067 240.389 126.577L276.389 126.423C276.298 105.325 269.892 88.7392 258.724 76.6233C247.857 64.8341 233.974 58.8947 221.61 55.9189C209.226 52.9383 197.229 52.6463 188.606 53.009C184.23 53.1932 180.56 53.5537 177.934 53.8768C176.617 54.0387 175.552 54.1924 174.781 54.3122C174.396 54.3722 174.082 54.4237 173.847 54.4638C173.729 54.4838 173.631 54.5009 173.552 54.5148C173.513 54.5218 173.479 54.5279 173.45 54.5331C173.435 54.5358 173.422 54.5382 173.41 54.5404C173.404 54.5415 173.396 54.5429 173.393 54.5435C173.385 54.5449 173.378 54.5463 176.63 72.25ZM240.389 126.577C240.447 140.062 236.612 147.505 232.483 152.001C228.039 156.839 221.511 160.138 213.423 162.077C205.363 164.01 196.915 164.303 190.199 164.023C186.907 163.885 184.185 163.616 182.338 163.391C181.418 163.278 180.724 163.178 180.296 163.112C180.082 163.079 179.936 163.054 179.861 163.042C179.824 163.036 179.805 163.032 179.804 163.032C179.804 163.032 179.808 163.033 179.818 163.034C179.822 163.035 179.828 163.036 179.835 163.038C179.838 163.038 179.845 163.039 179.846 163.04C179.853 163.041 179.859 163.042 176.63 180.75C173.4 198.458 173.408 198.459 173.415 198.461C173.418 198.461 173.426 198.463 173.432 198.464C173.444 198.466 173.458 198.468 173.472 198.471C173.501 198.476 173.535 198.482 173.575 198.489C173.653 198.503 173.752 198.52 173.87 198.54C174.105 198.58 174.42 198.631 174.807 198.691C175.581 198.81 176.65 198.963 177.972 199.125C180.611 199.447 184.298 199.807 188.694 199.991C197.354 200.353 209.402 200.062 221.819 197.085C234.208 194.113 248.138 188.176 258.997 176.353C270.169 164.188 276.48 147.545 276.389 126.423L240.389 126.577ZM221.12 18C221.12 36 221.112 36 221.105 36C221.102 36 221.095 36 221.09 36C221.081 36 221.072 35.9999 221.063 35.9999C221.047 35.9998 221.032 35.9998 221.02 35.9997C220.995 35.9995 220.979 35.9993 220.971 35.9992C220.955 35.999 220.973 35.9991 221.023 36.0006C221.124 36.0035 221.353 36.0117 221.7 36.0326C222.397 36.0746 223.562 36.1676 225.118 36.3709C228.238 36.7785 232.875 37.6224 238.429 39.3592C249.505 42.8234 264.123 49.7985 277.835 63.9597L303.698 38.9175C285.032 19.6401 264.827 9.89593 249.175 5.00044C241.364 2.55747 234.66 1.31144 229.781 0.674106C227.337 0.354905 225.337 0.186608 223.869 0.0979929C223.134 0.0536557 222.531 0.0291703 222.069 0.0157627C221.839 0.00905724 221.643 0.00511734 221.485 0.00285342C221.405 0.00172136 221.335 0.00100806 221.274 0.00057775C221.244 0.000362589 221.216 0.00021816 221.19 0.000127517C221.177 8.21956e-05 221.165 5.03194e-05 221.153 2.97721e-05C221.147 2.02787e-05 221.139 9.93845e-06 221.136 7.1831e-06C221.128 1.73578e-06 221.12 0 221.12 18ZM277.835 63.9597C287.356 73.7924 292.57 88.4483 295.14 102.399C296.38 109.131 296.905 115.153 297.117 119.468C297.223 121.614 297.249 123.306 297.251 124.415C297.252 124.968 297.246 125.374 297.242 125.615C297.239 125.735 297.237 125.814 297.236 125.85C297.236 125.868 297.236 125.875 297.236 125.871C297.236 125.869 297.236 125.864 297.236 125.857C297.236 125.853 297.236 125.848 297.237 125.843C297.237 125.84 297.237 125.836 297.237 125.835C297.237 125.83 297.237 125.825 315.225 126.5C333.212 127.175 333.212 127.17 333.212 127.164C333.212 127.162 333.213 127.157 333.213 127.153C333.213 127.144 333.213 127.135 333.214 127.126C333.214 127.107 333.215 127.084 333.216 127.059C333.218 127.009 333.22 126.947 333.222 126.873C333.226 126.726 333.231 126.532 333.235 126.295C333.244 125.821 333.252 125.17 333.251 124.359C333.248 122.74 333.21 120.474 333.074 117.702C332.802 112.18 332.136 104.521 330.544 95.8771C327.449 79.0764 320.434 56.2016 303.698 38.9175L277.835 63.9597ZM297.225 126.5V180.75H333.225V126.5H297.225ZM356.92 253H407V217H356.92V253ZM356.92 235C356.92 217 356.925 217 356.93 217C356.931 217 356.936 217 356.939 217C356.946 217 356.952 217 356.957 217C356.969 217 356.979 217 356.988 217C357.005 217 357.018 217 357.025 217C357.04 217.001 357.036 217.001 357.013 217C356.966 216.999 356.847 216.996 356.663 216.989C356.293 216.974 355.675 216.939 354.875 216.865C353.24 216.713 351.03 216.41 348.699 215.833C343.301 214.495 340.74 212.581 339.963 211.42L310.053 231.455C318.36 243.857 331.755 248.723 340.041 250.776C344.553 251.894 348.617 252.439 351.546 252.711C353.028 252.849 354.265 252.921 355.179 252.958C355.637 252.977 356.017 252.988 356.309 252.993C356.456 252.996 356.58 252.998 356.682 252.999C356.733 252.999 356.779 253 356.818 253C356.838 253 356.856 253 356.873 253C356.882 253 356.89 253 356.898 253C356.901 253 356.907 253 356.909 253C356.914 253 356.92 253 356.92 235ZM339.963 211.42C337.77 208.146 335.754 201.382 334.498 193.258C333.932 189.593 333.607 186.261 333.425 183.849C333.335 182.651 333.282 181.703 333.252 181.08C333.237 180.769 333.228 180.54 333.223 180.405C333.22 180.337 333.219 180.292 333.218 180.272C333.218 180.262 333.218 180.258 333.218 180.26C333.218 180.262 333.218 180.264 333.218 180.269C333.218 180.271 333.218 180.273 333.218 180.276C333.218 180.278 333.219 180.28 333.219 180.281C333.219 180.284 333.219 180.286 315.225 180.75C297.231 181.214 297.231 181.216 297.231 181.22C297.231 181.221 297.231 181.224 297.231 181.226C297.231 181.231 297.231 181.236 297.231 181.241C297.232 181.252 297.232 181.265 297.232 181.279C297.233 181.308 297.234 181.343 297.236 181.384C297.238 181.468 297.242 181.577 297.247 181.711C297.256 181.979 297.271 182.347 297.293 182.804C297.337 183.718 297.409 184.994 297.527 186.552C297.76 189.649 298.177 193.946 298.921 198.757C300.286 207.586 303.161 221.167 310.053 231.455L339.963 211.42Z" fill="#FF0000"/>
</svg>
